<svg width="50" height="50" viewBox="0 0 50 50" fill="none" xmlns="http://www.w3.org/2000/svg">
<g clip-path="url(#clip0_122_8)">
<rect width="50" height="50" fill="white"/>
<path d="M6.68835 37.0361L7.35677 36.1003L6.68835 37.0361ZM6.68835 37.0361C6.45569 36.8699 6.24678 36.6754 6.06045 36.458C5.86974 36.2356 5.70315 35.9858 5.58361 35.7069C5.45508 35.407 5.39792 35.0017 5.57785 34.5879C5.74183 34.2107 6.03165 33.9942 6.23958 33.8772C6.6988 33.6189 7.28756 33.5831 7.7474 33.5831H7.83317L7.91799 33.5958L8.56903 33.6935L8.59662 33.6976L8.62398 33.7031C9.28092 33.8345 9.96873 34.1948 10.6551 34.6601C11.4414 35.1932 12.0827 35.8844 12.5774 36.7176L12.5846 36.7297L12.5915 36.742C13.0194 37.5048 13.5054 38.0332 14.0297 38.3801C14.5815 38.7451 15.0751 38.8891 15.5273 38.8891C16.1898 38.8891 16.7258 38.8385 17.1483 38.7505C17.3833 38.7015 17.608 38.6399 17.823 38.5659C17.9491 37.9712 18.1342 37.4156 18.3829 36.9061C17.834 36.8072 17.3104 36.6924 16.8128 36.5612C15.7178 36.2724 14.6087 35.809 13.4869 35.1845C12.3149 34.5321 11.323 33.7111 10.5278 32.7171C9.7207 31.7082 9.09432 30.4304 8.62005 28.9266C8.13241 27.3805 7.89948 25.6322 7.89948 23.6979C7.89948 21.041 8.70212 18.7057 10.3114 16.744C9.65053 14.624 9.84309 12.3336 10.7773 9.93429L10.9785 9.41759L11.5081 9.25324C12.5399 8.93301 13.7983 9.21907 15.0707 9.72134C16.3214 10.215 17.3006 10.6611 17.9609 11.0598C18.3343 11.2852 18.6661 11.4915 18.9544 11.6781C20.9148 11.1768 22.9309 10.9268 25 10.9268C27.0747 10.9268 29.096 11.1781 31.0614 11.6821L31.8729 11.1696L31.8842 11.1625L31.8843 11.1625C32.8056 10.5956 33.8725 10.0878 35.0758 9.63369C36.2759 9.18079 37.4722 8.93588 38.4704 9.25673L38.9864 9.42258L39.1869 9.92609C40.1426 12.3261 40.3485 14.6197 39.6883 16.7437C41.2978 18.7055 42.1005 21.0409 42.1005 23.6979C42.1005 25.6324 41.8675 27.3851 41.3807 28.9405C40.9058 30.4578 40.2716 31.7423 39.446 32.7456C38.6417 33.7231 37.6481 34.5345 36.4806 35.1845C35.3588 35.809 34.2497 36.2724 33.1546 36.5612C32.664 36.6906 32.1481 36.804 31.6075 36.9019C32.1324 37.9686 32.3674 39.2418 32.3674 40.6576V48.4375C32.3674 48.5928 32.3813 48.6957 32.3948 48.7586C32.5233 48.8003 32.6134 48.8186 32.6702 48.8253C32.7871 48.8391 32.9996 48.85 33.3333 48.85H40.625C42.901 48.85 44.8171 48.0553 46.4362 46.4362C48.0553 44.8171 48.85 42.901 48.85 40.625V9.375C48.85 7.09898 48.0553 5.18295 46.4362 3.56382C44.8171 1.9447 42.901 1.15 40.625 1.15H9.375C7.09898 1.15 5.18295 1.9447 3.56382 3.56382C1.9447 5.18295 1.15 7.09898 1.15 9.375V40.625C1.15 42.901 1.9447 44.8171 3.56382 46.4362C5.18295 48.0553 7.09898 48.85 9.375 48.85H16.6667C17.0846 48.85 17.3648 48.8366 17.5326 48.8182C17.551 48.8046 17.581 48.7796 17.6217 48.7375C17.6239 48.7333 17.628 48.7246 17.633 48.7094C17.6466 48.6681 17.6651 48.5832 17.6651 48.4375C17.6651 48.3783 17.6597 47.6483 17.6489 46.2328C17.643 45.4769 17.6388 44.8044 17.6361 44.2155C17.2033 44.2579 16.7259 44.2728 16.2101 44.2651C15.4148 44.2532 14.598 44.1703 13.7605 44.0191C12.7899 43.8438 11.8967 43.4395 11.0891 42.8272C10.2407 42.1841 9.63536 41.3403 9.27945 40.3272L8.97141 39.6187C8.80358 39.2327 8.51915 38.7612 8.08853 38.2004C7.6876 37.6782 7.35366 37.4213 7.10876 37.3099L7.00708 37.2637L6.9162 37.1988L6.68835 37.0361ZM18.5636 40.7435C18.4929 40.8314 18.3629 40.8996 18.1738 40.9481L18.1591 40.8697C18.2956 40.8311 18.4305 40.7891 18.5636 40.7435ZM18.1187 40.8809L18.1285 40.9589C18.0307 40.9806 17.9458 40.9877 17.8736 40.9801C17.8749 40.968 17.876 40.9558 17.8769 40.9436C17.9581 40.9239 18.0387 40.903 18.1187 40.8809ZM16.2616 41.1699C16.3144 41.1671 16.3667 41.1639 16.4186 41.1603C16.3718 41.1696 16.3198 41.1754 16.2625 41.1775C16.2458 41.1781 16.2286 41.1784 16.2109 41.1784C16.1999 41.1797 16.1891 41.1808 16.1784 41.1818C16.1049 41.1888 16.0392 41.1888 15.9812 41.182C16.0475 41.1799 16.1132 41.1773 16.1784 41.1742C16.189 41.1737 16.1996 41.1732 16.2103 41.1726C16.2105 41.1726 16.2107 41.1726 16.2109 41.1726C16.2279 41.1717 16.2448 41.1708 16.2616 41.1699ZM17.62 48.7405C17.6199 48.7405 17.6202 48.74 17.6208 48.7392L17.62 48.7405Z" fill="white" stroke="black" stroke-width="2.3"/>
</g>
<defs>
<clipPath id="clip0_122_8">
<rect width="50" height="50" fill="white"/>
</clipPath>
</defs>
</svg>
