<svg width="50" height="50" viewBox="0 0 50 50" fill="none" xmlns="http://www.w3.org/2000/svg">
<path d="M10.2812 11C8.48112 11 7.00855 12.5677 7 14.4878C7 14.4878 7 14.4909 7 14.4939C7 14.497 7 14.497 7 14.5V35.5C7 37.4232 8.47827 39 10.2812 39H38.7188C40.5217 39 42 37.4232 42 35.5V14.5C42 14.497 42 14.497 42 14.4939C42 14.4909 42 14.4878 42 14.4878C41.9915 12.5677 40.5189 11 38.7188 11H10.2812ZM12.1782 12.5556H36.8246L24.5 21.7188L12.1782 12.5556ZM9.75147 12.6467L24.5 23.6146L39.2514 12.6467C39.9976 12.8867 40.536 13.6098 40.5417 14.4909C40.5388 14.6549 40.3822 14.9831 40.1543 15.2474C39.9236 15.5148 39.6986 15.6819 39.6986 15.6819L39.6957 15.6879L24.5 27.1602L9.30428 15.6879L9.30143 15.6819C9.30143 15.6819 9.07642 15.5148 8.8457 15.2474C8.61784 14.9831 8.46118 14.6549 8.45833 14.4909C8.46403 13.6098 9.00236 12.8867 9.75147 12.6467ZM8.45833 16.9518L8.46403 16.9579L8.46973 16.9609V16.964L10.6458 18.6046V37.4444H10.2812C9.26725 37.4444 8.45833 36.5816 8.45833 35.5V16.9518ZM40.5417 16.9518V35.5C40.5417 36.5816 39.7327 37.4444 38.7188 37.4444H38.3542V18.6046L40.5303 16.964V16.9609L40.5417 16.9518ZM12.1042 19.7044L24.5 29.0621L36.8958 19.7044V37.4444H12.1042V19.7044Z" fill="black"/>
<rect x="1.15" y="1.15" width="47.7" height="47.7" rx="8.85" stroke="black" stroke-width="2.3"/>
</svg>
