<svg width="160" height="160" viewBox="0 0 160 160" fill="none" xmlns="http://www.w3.org/2000/svg">
<rect width="160" height="160" rx="20" fill="white"/>
<path d="M81.1222 69.9998V91.2998H111.327C110 98.1498 106.02 103.95 100.051 107.85L118.265 121.7C128.877 112.1 135 98.0002 135 81.2503C135 77.3504 134.643 73.6 133.98 70.0004L81.1222 69.9998Z" fill="#4285F4"/>
<path d="M49.6693 90.4685L45.5612 93.5502L31.02 104.65C40.2548 122.6 59.1822 135 81.121 135C96.2739 135 108.978 130.1 118.264 121.7L100.05 107.85C95.0495 111.15 88.6718 113.15 81.121 113.15C66.5291 113.15 54.1314 103.5 49.6922 90.5003L49.6693 90.4685Z" fill="#34A853"/>
<path d="M31.02 55.3501C27.1937 62.7498 25 71.0999 25 79.9998C25 88.8996 27.1937 97.2498 31.02 104.649C31.02 104.699 49.694 90.4494 49.694 90.4494C48.5716 87.1495 47.9081 83.6497 47.9081 79.9992C47.9081 76.3487 48.5716 72.8489 49.694 69.5489L31.02 55.3501Z" fill="#FBBC05"/>
<path d="M81.1222 46.9C89.3877 46.9 96.7346 49.6999 102.602 55.1L118.673 39.3502C108.928 30.4503 96.2756 25 81.1222 25C59.1833 25 40.2548 37.35 31.02 55.35L49.6934 69.55C54.132 56.5499 66.5303 46.9 81.1222 46.9Z" fill="#EA4335"/>
</svg>
