<svg width="160" height="160" viewBox="0 0 160 160" fill="none" xmlns="http://www.w3.org/2000/svg">
<rect width="160" height="160" rx="20" fill="white"/>
<path d="M65.1732 29.5467L50.7376 38.2223V46.9689C50.7376 51.8045 50.951 55.5734 51.3065 55.4312C70.0088 44.0534 79.6799 38.3645 80.2488 38.3645C80.8176 38.3645 90.4888 44.0534 109.262 55.4312C109.547 55.5734 109.76 51.8045 109.76 46.9689L109.689 38.2223L95.2532 29.4756C87.2888 24.7112 80.4621 20.8 80.1776 20.8C79.8221 20.8712 73.0665 24.7823 65.1732 29.5467Z" fill="#A435F0"/>
<path d="M50.88 94.5422L51.0933 117.867L53.2978 122.489C58.56 133.582 68.0889 139.698 80.2489 139.698C92.4089 139.698 101.938 133.582 107.2 122.489L109.404 117.867L109.618 94.5422L109.831 71.2889H102.009H94.1867L93.9733 93.6178L93.76 115.947L91.6267 119.076C85.6533 127.467 74.8444 127.467 68.8711 119.076L66.7378 115.947L66.5244 93.6178L66.3111 71.2889H58.4889H50.6667L50.88 94.5422Z" fill="black"/>
</svg>
