<svg width="160" height="160" viewBox="0 0 160 160" fill="none" xmlns="http://www.w3.org/2000/svg">
<g clip-path="url(#clip0_121_127)">
<rect width="160" height="160" rx="20" fill="black"/>
<path d="M0 80V140C0 151.046 8.9543 160 20 160H80H140C151.046 160 160 151.046 160 140V80V20C160 8.95428 151.046 -1.52588e-05 140 -1.52588e-05H80H20C8.9543 -1.52588e-05 0 8.9543 0 20V80ZM99.2 49.6C99.2 51.8091 97.4091 53.6 95.2 53.6H80H64.8C62.5909 53.6 60.8 51.8091 60.8 49.6C60.8 47.3909 62.5909 45.6 64.8 45.6H80H95.2C97.4091 45.6 99.2 47.3909 99.2 49.6ZM56 85.2V105.6C56 107.809 54.2091 109.6 52 109.6C49.7909 109.6 48 107.809 48 105.6V85.2V64.8C48 62.5909 49.7909 60.8 52 60.8C54.2091 60.8 56 62.5909 56 64.8V85.2ZM112 85.2V105.6C112 107.809 110.209 109.6 108 109.6C105.791 109.6 104 107.809 104 105.6V85.2V64.8C104 62.5909 105.791 60.8 108 60.8C110.209 60.8 112 62.5909 112 64.8V85.2Z" fill="white"/>
<path d="M0 80V140C0 151.046 8.9543 160 20 160H80H140C151.046 160 160 151.046 160 140V80V20C160 8.95428 151.046 -1.52588e-05 140 -1.52588e-05H80H20C8.9543 -1.52588e-05 0 8.9543 0 20V80ZM99.2 49.6C99.2 51.8091 97.4091 53.6 95.2 53.6H80H64.8C62.5909 53.6 60.8 51.8091 60.8 49.6C60.8 47.3909 62.5909 45.6 64.8 45.6H80H95.2C97.4091 45.6 99.2 47.3909 99.2 49.6ZM56 85.2V105.6C56 107.809 54.2091 109.6 52 109.6C49.7909 109.6 48 107.809 48 105.6V85.2V64.8C48 62.5909 49.7909 60.8 52 60.8C54.2091 60.8 56 62.5909 56 64.8V85.2ZM112 85.2V105.6C112 107.809 110.209 109.6 108 109.6C105.791 109.6 104 107.809 104 105.6V85.2V64.8C104 62.5909 105.791 60.8 108 60.8C110.209 60.8 112 62.5909 112 64.8V85.2Z" stroke="white"/>
</g>
<defs>
<clipPath id="clip0_121_127">
<rect width="160" height="160" rx="20" fill="white"/>
</clipPath>
</defs>
</svg>
