<svg width="1141" height="1073" viewBox="0 0 1141 1073" fill="none" xmlns="http://www.w3.org/2000/svg">
<path d="M1019.61 437.712C1031.1 490.815 1176.53 555.425 1115.3 627.676C1054.07 699.926 960.945 700.303 904.842 637.202C848.739 574.101 757.513 439.504 711.567 447.144C665.622 454.784 552.276 511.943 583.413 576.365C614.55 640.786 566.231 675.214 625.467 709.453C684.797 743.691 805.357 627.487 854.151 670.403C902.849 713.32 966.072 808.302 887.565 812.169C809.154 815.942 717.263 720.96 673.311 747.559C629.359 774.157 638.852 871.12 558.542 859.707C478.232 848.294 443.773 747.464 344.287 781.703C244.802 815.942 43.9321 981.288 80.2898 844.427C116.648 707.566 212.336 582.118 284.957 652.388C357.577 722.658 436.083 694.173 468.644 756.897C501.205 819.62 356.058 866.121 350.268 908" stroke="#5A80E0" stroke-width="21" stroke-miterlimit="10" stroke-linecap="round" stroke-linejoin="round"/>
<path d="M639.5 11C591.1 19.1 513.722 232.1 546.522 300.4C579.322 368.7 466.1 468.2 528.5 504.5C591 540.8 612.378 513.7 663.778 559.2C715.078 604.7 781.678 705.4 698.978 709.5C616.378 713.5 519.578 848.8 473.278 877C426.978 905.2 436.978 772 352.378 759.9C267.778 747.8 230.8 1025.2 126 1061.5" stroke="#87EDD4" stroke-width="21" stroke-miterlimit="10" stroke-linecap="round" stroke-linejoin="round"/>
</svg>
