<svg width="877" height="650" viewBox="0 0 877 650" fill="none" xmlns="http://www.w3.org/2000/svg">
<path d="M1019.61 179.712C1031.1 232.815 1176.53 297.425 1115.3 369.676C1054.07 441.926 960.945 442.303 904.842 379.202C848.739 316.101 757.513 181.504 711.567 189.144C665.622 196.784 552.276 253.943 583.413 318.365C614.55 382.786 566.231 417.214 625.467 451.453C684.797 485.691 805.357 369.487 854.15 412.403C902.849 455.32 966.072 550.302 887.565 554.169C809.154 557.942 717.263 462.96 673.311 489.559C629.359 516.157 638.852 613.12 558.542 601.707C478.232 590.294 443.773 489.464 344.287 523.703C244.802 557.942 43.932 723.288 80.2898 586.427C116.648 449.566 212.336 324.118 284.957 394.388C357.577 464.658 436.083 436.173 468.644 498.897C501.205 561.62 356.058 608.121 350.268 650" stroke="#5A80E0" stroke-width="21" stroke-miterlimit="10" stroke-linecap="round" stroke-linejoin="round"/>
<path d="M639.5 -247C591.1 -238.9 513.722 -25.9002 546.522 42.3998C579.322 110.7 466.1 210.2 528.5 246.5C591 282.8 612.378 255.7 663.778 301.2C715.078 346.7 781.678 447.4 698.978 451.5C616.378 455.5 519.578 590.8 473.278 619C426.978 647.2 436.978 514 352.378 501.9C267.778 489.8 230.8 767.2 126 803.5" stroke="#87EDD4" stroke-width="21" stroke-miterlimit="10" stroke-linecap="round" stroke-linejoin="round"/>
</svg>
