<svg width="977" height="388" viewBox="0 0 977 388" fill="none" xmlns="http://www.w3.org/2000/svg">
<path d="M822.611 11C837.492 46.004 1025.91 88.5933 946.584 136.219C867.256 183.844 746.603 184.093 673.916 142.498C601.23 100.904 483.037 12.1813 423.51 17.2174C363.983 22.2535 217.134 59.931 257.474 102.396C297.815 144.861 235.213 167.554 311.959 190.124C388.827 212.693 545.024 136.094 608.24 164.383C671.334 192.673 753.245 255.282 651.532 257.831C549.943 260.318 430.889 197.709 373.945 215.242C317.001 232.775 329.3 296.69 225.251 289.167C121.202 281.644 76.5567 215.18 -52.3362 237.749C-181.229 260.318 -441.475 369.309 -394.37 279.095C-347.265 188.88 -223.292 106.189 -129.205 152.508C-35.1177 198.828 66.5946 180.051 108.78 221.397C150.965 262.743 -37.0855 293.395 -44.5879 321" stroke="#5A80E0" stroke-width="21" stroke-miterlimit="10" stroke-linecap="round" stroke-linejoin="round"/>
<path d="M735 115C596.953 169.011 763.294 227.542 708.213 270.537C653.131 313.532 612.245 289.094 577.2 290.179C542.154 291.264 473.557 301.199 447.273 265.626C420.989 230.054 400.614 162.507 345.125 166.162C289.637 169.816 311.574 219.948 229.801 240.903C148.029 261.858 -74.0926 200.65 39.1025 295.239C122.294 376.643 -16 377 -16 377" stroke="#87EDD4" stroke-width="21" stroke-miterlimit="10" stroke-linecap="round" stroke-linejoin="round"/>
</svg>
